<?xml version="1.0" standalone="no"?>
<!DOCTYPE svg PUBLIC "-//W3C//DTD SVG 20010904//EN"
 "http://www.w3.org/TR/2001/REC-SVG-20010904/DTD/svg10.dtd">
<svg version="1.0" xmlns="http://www.w3.org/2000/svg"
 width="355.000000pt" height="142.000000pt" viewBox="0 0 355.000000 142.000000"
 preserveAspectRatio="xMidYMid meet">

<g transform="translate(0.000000,142.000000) scale(0.100000,-0.100000)"
fill="#000000" stroke="none">
<path d="M2434 1405 c3 -9 86 -133 184 -278 213 -312 195 -283 187 -307 -7
-21 -35 -25 -95 -14 -30 7 -37 18 -172 295 -81 165 -147 289 -155 289 -7 0
-13 -4 -13 -9 0 -4 60 -131 134 -282 156 -320 164 -290 -66 -261 -137 17 -148
17 -148 2 0 -14 24 -20 153 -34 232 -26 214 -20 245 -83 38 -78 30 -86 -94
-94 -54 -4 -152 -7 -216 -8 -65 0 -118 -5 -118 -9 0 -8 200 -7 363 1 31 2 57
2 57 1 0 -2 -70 -120 -155 -263 -177 -299 -178 -301 -172 -307 2 -3 82 126
177 286 128 216 177 290 191 290 12 0 26 -15 40 -41 l21 -41 -29 -37 c-202
-254 -364 -474 -359 -488 9 -21 -5 -37 216 250 100 130 184 237 186 237 2 0
38 -72 80 -160 43 -88 81 -160 85 -160 23 0 12 33 -61 186 l-81 168 30 40 c25
36 34 41 72 44 l44 2 110 -164 c61 -90 113 -162 117 -160 4 3 -42 75 -101 162
l-108 157 36 7 c20 4 108 8 196 8 88 1 198 6 245 10 51 5 -31 6 -205 3 l-290
-5 -14 25 c-11 21 -11 28 4 51 10 15 27 26 40 26 12 0 138 -13 278 -30 301
-35 267 -33 267 -16 0 17 -8 18 -300 52 -123 14 -226 27 -229 29 -2 3 16 31
41 62 177 230 178 231 165 241 -9 8 -41 -26 -131 -144 -108 -141 -121 -154
-149 -154 -49 0 -75 10 -91 35 -14 21 -9 32 85 191 55 93 110 184 121 202 11
17 16 32 11 32 -5 0 -60 -85 -122 -190 -62 -105 -116 -190 -120 -190 -3 1 -91
127 -195 280 -104 154 -191 280 -194 280 -2 0 -2 -7 2 -15z m406 -606 c0 -5
-7 -9 -15 -9 -15 0 -20 12 -9 23 8 8 24 -1 24 -14z m-70 -36 c0 -5 -9 -19 -19
-32 l-19 -24 -16 31 -17 32 36 0 c19 0 35 -3 35 -7z m160 -28 c-10 -12 -16
-13 -26 -4 -20 16 -18 19 12 19 22 0 25 -2 14 -15z m-1 -96 c-30 -7 -35 -3
-19 16 10 12 16 13 28 3 13 -11 11 -13 -9 -19z m-199 1 c0 -5 -5 -10 -11 -10
-5 0 -7 5 -4 10 3 6 8 10 11 10 2 0 4 -4 4 -10z m93 -46 c-16 -25 -17 -25 -30
-8 -20 27 -16 34 17 34 l30 0 -17 -26z"/>
<path d="M865 931 c-31 -14 -62 -53 -69 -86 -10 -51 22 -90 91 -111 71 -22 83
-30 83 -58 0 -31 -19 -46 -57 -46 -27 0 -37 6 -51 30 -21 36 -72 44 -72 10 0
-59 41 -90 121 -90 86 0 129 38 129 114 0 43 -30 70 -103 91 -63 18 -85 42
-67 75 6 11 22 23 37 26 21 6 31 2 49 -19 28 -33 74 -37 74 -8 0 11 -10 32
-23 47 -18 21 -34 27 -73 30 -27 2 -58 0 -69 -5z"/>
<path d="M10 755 l0 -175 30 0 30 0 0 68 c0 38 2 71 4 73 3 2 25 3 50 1 50 -4
49 -2 61 -94 6 -47 7 -48 42 -48 25 0 34 4 30 13 -3 8 -8 40 -12 72 -5 34 -15
65 -25 75 -17 17 -17 19 6 41 33 31 33 91 -1 124 -22 23 -32 25 -120 25 l-95
0 0 -175z m151 115 c22 -12 26 -59 7 -78 -7 -7 -31 -12 -55 -12 l-43 0 0 43
c0 24 3 47 7 50 10 11 62 8 84 -3z"/>
<path d="M1980 755 l0 -175 30 0 30 0 0 74 c0 116 31 167 72 117 14 -19 18
-40 18 -107 l0 -84 30 0 30 0 0 100 c0 94 -2 103 -25 125 -28 29 -70 32 -103
9 l-22 -15 0 65 0 66 -30 0 -30 0 0 -175z"/>
<path d="M332 814 c-33 -23 -29 -54 7 -54 17 0 31 6 35 16 9 23 50 14 54 -12
3 -18 -3 -22 -38 -27 -57 -7 -90 -40 -90 -87 0 -46 25 -70 70 -70 18 0 42 7
52 17 17 15 18 15 18 0 0 -12 9 -17 28 -17 l27 0 -3 105 c-3 99 -5 106 -29
125 -31 24 -99 27 -131 4z m98 -137 c0 -32 -23 -60 -46 -55 -26 4 -31 48 -8
65 29 21 54 16 54 -10z"/>
<path d="M538 825 c-2 -3 13 -56 34 -117 39 -111 43 -150 23 -201 -7 -16 -3
-18 26 -15 l33 3 47 145 c25 80 49 155 53 168 7 19 4 22 -22 22 -29 0 -31 -4
-52 -72 -11 -40 -24 -80 -27 -88 -3 -8 -17 24 -30 73 -24 82 -27 87 -53 87
-15 0 -29 -2 -32 -5z"/>
<path d="M1125 808 c-32 -28 -46 -87 -35 -147 11 -59 38 -81 99 -81 51 0 86
18 94 50 4 17 0 20 -23 20 -15 0 -33 -7 -40 -15 -26 -31 -70 -11 -70 32 0 22
4 23 70 23 l70 0 0 41 c0 85 -101 132 -165 77z m89 -34 c28 -28 20 -44 -24
-44 -33 0 -40 3 -40 20 0 17 23 39 42 40 4 0 14 -7 22 -16z"/>
<path d="M1366 809 c-14 -11 -26 -27 -26 -35 0 -20 56 -19 64 2 9 23 50 14 54
-12 3 -18 -4 -22 -38 -28 -76 -12 -113 -79 -74 -134 19 -27 78 -30 106 -5 17
15 18 15 18 0 0 -12 9 -17 30 -17 l30 0 0 84 c0 92 -13 141 -40 156 -32 17
-95 12 -124 -11z m94 -138 c0 -36 -25 -59 -48 -44 -38 23 -17 73 30 73 13 0
18 -8 18 -29z"/>
<path d="M1580 705 l0 -125 35 0 34 0 3 88 3 87 33 10 c26 7 32 14 32 37 0 34
-17 36 -54 7 l-26 -20 0 20 c0 17 -6 21 -30 21 l-30 0 0 -125z"/>
<path d="M1788 810 c-50 -39 -55 -155 -8 -206 17 -17 34 -24 61 -24 51 0 67 8
84 41 21 40 19 49 -13 49 -21 0 -32 -7 -40 -25 -15 -32 -40 -32 -52 1 -14 36
-12 107 3 128 15 21 43 13 50 -15 4 -14 14 -19 36 -19 40 0 41 22 2 61 -35 35
-86 39 -123 9z"/>
<path d="M10 400 l0 -120 90 0 c73 0 90 3 90 15 0 12 -13 15 -60 15 l-60 0 0
105 0 105 -30 0 -30 0 0 -120z"/>
<path d="M430 400 l0 -120 38 -1 c20 0 54 0 75 -1 52 -2 82 28 82 83 0 33 -6
46 -29 66 -29 25 -55 27 -98 8 -16 -6 -18 -1 -18 39 0 42 -2 46 -25 46 l-25 0
0 -120z m128 8 c20 -20 15 -86 -8 -98 -39 -21 -68 13 -60 70 5 37 44 52 68 28z"/>
<path d="M1800 500 c0 -16 7 -20 30 -20 23 0 30 4 30 20 0 16 -7 20 -30 20
-23 0 -30 -4 -30 -20z"/>
<path d="M1293 483 c-7 -2 -13 -13 -13 -24 0 -12 -7 -19 -20 -19 -11 0 -20 -5
-20 -11 0 -6 9 -13 20 -16 17 -5 20 -14 20 -58 0 -72 30 -100 84 -79 22 8 20
21 -4 27 -17 4 -20 14 -20 56 0 44 3 51 20 51 11 0 20 7 20 15 0 8 -9 15 -20
15 -15 0 -20 7 -20 25 0 25 -16 31 -47 18z"/>
<path d="M254 440 c-12 -4 -24 -15 -27 -24 -5 -12 0 -16 23 -16 17 0 30 5 30
11 0 18 45 5 48 -13 3 -14 -3 -18 -28 -18 -38 0 -66 -14 -80 -40 -25 -47 46
-88 95 -56 14 9 25 12 25 6 0 -5 10 -10 23 -10 21 0 22 3 19 70 -3 58 -7 73
-25 85 -23 16 -70 19 -103 5z m76 -99 c0 -24 -23 -43 -44 -35 -19 7 -22 40 -3
47 27 12 47 7 47 -12z"/>
<path d="M710 437 c-56 -28 -63 -112 -12 -145 16 -10 44 -17 71 -16 35 1 49 7
68 28 67 79 -31 182 -127 133z m78 -29 c17 -17 15 -83 -3 -98 -12 -10 -21 -10
-40 -2 -43 20 -31 112 15 112 9 0 21 -5 28 -12z"/>
<path d="M978 436 c-16 -8 -28 -11 -28 -5 0 5 -11 9 -25 9 -25 0 -25 -1 -25
-80 l0 -80 30 0 c28 0 29 1 32 58 3 54 4 57 31 60 21 3 27 9 27 28 0 28 -5 29
-42 10z"/>
<path d="M1084 440 c-12 -4 -24 -15 -27 -24 -5 -12 0 -16 23 -16 17 0 30 5 30
10 0 6 11 10 25 10 18 0 25 -5 25 -20 0 -16 -7 -20 -33 -20 -49 0 -79 -25 -75
-63 4 -41 53 -59 93 -33 14 9 25 12 25 6 0 -5 12 -10 26 -10 26 0 26 0 22 66
-3 55 -8 70 -27 85 -24 20 -71 24 -107 9z m76 -99 c0 -24 -23 -43 -44 -35 -19
7 -22 40 -3 47 27 12 47 7 47 -12z"/>
<path d="M1455 438 c-71 -42 -53 -148 29 -163 44 -9 103 17 116 50 12 32 3 79
-21 101 -23 21 -98 28 -124 12z m89 -49 c19 -55 -22 -109 -59 -79 -18 15 -20
81 -3 98 20 20 52 10 62 -19z"/>
<path d="M1722 434 c-12 -8 -22 -10 -22 -5 0 6 -11 11 -25 11 -25 0 -25 -1
-25 -80 0 -79 0 -80 25 -80 23 0 25 3 25 48 0 51 12 72 42 72 13 0 18 8 18 25
0 29 -7 31 -38 9z"/>
<path d="M1945 439 c-11 -6 -26 -19 -32 -27 -19 -23 -16 -86 5 -112 34 -42
141 -33 150 13 4 21 -25 22 -52 2 -25 -19 -31 -19 -50 1 -25 25 -10 34 55 34
56 0 59 1 59 24 0 38 -30 67 -75 72 -22 2 -49 -1 -60 -7z m73 -41 c3 -15 -4
-18 -33 -18 -33 0 -35 2 -25 21 14 24 53 22 58 -3z"/>
<path d="M2142 440 c-53 -22 -38 -67 28 -90 24 -8 45 -20 47 -26 6 -17 -25
-26 -47 -14 -23 12 -60 13 -60 1 0 -32 73 -48 123 -27 64 26 44 81 -35 100
-16 4 -28 13 -28 21 0 17 35 21 45 5 10 -16 45 -12 45 5 0 29 -71 44 -118 25z"/>
<path d="M1800 360 c0 -79 0 -80 25 -80 25 0 25 1 25 80 0 79 0 80 -25 80 -25
0 -25 -1 -25 -80z"/>
</g>
</svg>
