<?xml version="1.0" standalone="no"?>
<!DOCTYPE svg PUBLIC "-//W3C//DTD SVG 20010904//EN"
 "http://www.w3.org/TR/2001/REC-SVG-20010904/DTD/svg10.dtd">
<svg version="1.0" xmlns="http://www.w3.org/2000/svg"
 width="256.000000pt" height="49.000000pt" viewBox="0 0 256.000000 49.000000"
 preserveAspectRatio="xMidYMid meet">

<g transform="translate(0.000000,49.000000) scale(0.100000,-0.100000)"
fill="#000000" stroke="none">
<path d="M671 470 c-54 -13 -113 -61 -140 -114 -69 -134 4 -304 144 -336 52
-12 128 5 164 36 36 30 41 30 41 -1 0 -23 4 -25 45 -25 l45 0 -2 217 -3 218
-42 3 c-42 3 -43 2 -43 -27 0 -34 -11 -39 -31 -15 -31 38 -117 59 -178 44z
m136 -100 c48 -29 67 -65 67 -124 0 -112 -108 -180 -205 -131 -63 33 -90 136
-54 206 34 64 128 89 192 49z"/>
<path d="M1710 465 c-90 -28 -150 -115 -150 -220 0 -75 24 -128 77 -176 72
-65 173 -71 252 -15 l36 26 3 -25 c3 -22 8 -25 48 -25 l44 0 -2 217 -3 218
-42 3 c-42 3 -43 2 -43 -27 l0 -30 -47 29 c-59 35 -114 43 -173 25z m170 -110
c97 -93 36 -255 -96 -255 -135 0 -184 193 -69 271 45 30 125 22 165 -16z"/>
<path d="M2269 467 c-65 -18 -104 -50 -133 -109 -24 -48 -26 -62 -26 -190 l0
-138 45 0 45 0 0 130 c0 147 9 178 63 210 61 38 135 19 173 -44 15 -25 20 -56
22 -163 l4 -133 45 0 45 0 -4 143 c-3 120 -7 148 -25 182 -50 95 -152 140
-254 112z"/>
<path d="M20 461 c0 -5 40 -103 89 -218 l89 -208 54 -3 55 -3 91 213 c51 117
92 217 92 221 0 4 -21 7 -46 5 l-46 -3 -64 -150 c-35 -82 -67 -158 -71 -168
-6 -14 -26 23 -79 150 l-71 168 -47 3 c-25 2 -46 -1 -46 -7z"/>
<path d="M1209 461 c-57 -12 -101 -43 -126 -90 -21 -40 -23 -57 -23 -193 l0
-148 45 0 45 0 0 135 c0 184 18 215 126 215 l45 0 -3 43 c-3 40 -4 42 -38 44
-19 0 -51 -2 -71 -6z"/>
<path d="M1390 251 l0 -221 45 0 45 0 -2 218 -3 217 -42 3 -43 3 0 -220z"/>
</g>
</svg>
